<svg width="21" height="21" viewBox="0 0 21 21" fill="none" xmlns="http://www.w3.org/2000/svg">
<g clip-path="url(#clip0_7_325)">
<path d="M15.0514 3.20996H5.05138C4.38838 3.20996 3.75238 3.47296 3.28338 3.94196C2.81438 4.41096 2.55138 5.04696 2.55138 5.70996V15.71C2.55138 16.373 2.81438 17.009 3.28338 17.478C3.75238 17.947 4.38838 18.21 5.05138 18.21H15.0514C15.7144 18.21 16.3504 17.947 16.8194 17.478C17.2884 17.009 17.5514 16.373 17.5514 15.71V5.70996C17.5514 5.04696 17.2884 4.41096 16.8194 3.94196C16.3504 3.47296 15.7144 3.20996 15.0514 3.20996ZM15.8844 15.71C15.8844 15.931 15.7964 16.143 15.6404 16.299C15.4844 16.455 15.2724 16.543 15.0514 16.543H5.05138C4.83038 16.543 4.61838 16.455 4.46238 16.299C4.30538 16.143 4.21838 15.931 4.21838 15.71V5.70996C4.21838 5.48896 4.30538 5.27696 4.46238 5.12096C4.61838 4.96396 4.83038 4.87696 5.05138 4.87696H15.0514C15.2724 4.87696 15.4844 4.96396 15.6404 5.12096C15.7964 5.27696 15.8844 5.48896 15.8844 5.70996V15.71Z" fill="#231F20"/>
<path d="M12.3014 7.70191L9.15137 11.8679L7.79337 10.1099C7.65737 9.93491 7.45737 9.82191 7.23737 9.79491C7.01837 9.76691 6.79637 9.82791 6.62237 9.96391C6.44737 10.0999 6.33437 10.2999 6.30637 10.5189C6.27937 10.7389 6.34037 10.9599 6.47637 11.1349L8.50137 13.7269C8.57937 13.8259 8.68037 13.9059 8.79437 13.9609C8.90837 14.0159 9.03337 14.0439 9.15937 14.0429C9.28737 14.0429 9.41237 14.0139 9.52637 13.9569C9.64037 13.9009 9.74037 13.8189 9.81837 13.7179L13.6264 8.71791C13.7614 8.54191 13.8204 8.31791 13.7904 8.09791C13.7614 7.87791 13.6454 7.67791 13.4684 7.54291C13.2914 7.40891 13.0684 7.34891 12.8474 7.37891C12.6274 7.40891 12.4284 7.52491 12.2934 7.70191H12.3014Z" fill="#231F20"/>
</g>
<defs>
<clipPath id="clip0_7_325">
<rect width="20" height="20" fill="white" transform="translate(0.0513763 0.709961)"/>
</clipPath>
</defs>
</svg>
