<svg width="131" height="26" viewBox="0 0 131 26" fill="none" xmlns="http://www.w3.org/2000/svg">
<path d="M24.41 16.16C24.41 18.52 23.72 20.32 22.34 21.56C20.96 22.8 18.87 23.57 16.07 23.87V25.79H8.96V23.81C5.62 23.39 2.7 22.51 0.2 21.17C0.86 20.15 1.4 19.2 1.82 18.32C2.26 17.44 2.68 16.42 3.08 15.26C4.42 16.08 5.99 16.72 7.79 17.18C9.59 17.64 11.27 17.87 12.83 17.87C14.41 17.87 15.52 17.73 16.16 17.45C16.82 17.15 17.15 16.83 17.15 16.49C17.15 15.27 15.37 14.66 11.81 14.66C7.91 14.66 5.08 14.24 3.32 13.4C1.56 12.54 0.68 11.16 0.68 9.26C0.68 7.04 1.42 5.3 2.9 4.04C4.4 2.76 6.42 1.94 8.96 1.58V-0.0100017H16.07V1.7C19.01 2.16 21.67 3.04 24.05 4.34C23.71 5.14 23.4 5.94 23.12 6.74C22.84 7.54 22.58 8.32 22.34 9.08L22.01 10.07C21.03 9.25 19.55 8.57 17.57 8.03C15.61 7.47 13.88 7.19 12.38 7.19C10.56 7.19 9.33 7.32 8.69 7.58C8.07 7.82 7.76 8.18 7.76 8.66C7.76 9.14 8.19 9.53 9.05 9.83C9.93 10.11 11.19 10.25 12.83 10.25C16.87 10.25 19.81 10.74 21.65 11.72C23.49 12.68 24.41 14.16 24.41 16.16ZM39.1616 11.33H51.9716V23.75H46.6916L46.0616 18.44C45.4616 20.34 44.3916 21.75 42.8516 22.67C41.3116 23.59 39.4316 24.05 37.2116 24.05C35.1916 24.05 33.3916 23.6 31.8116 22.7C30.2516 21.8 29.0216 20.51 28.1216 18.83C27.2416 17.15 26.8016 15.19 26.8016 12.95C26.8016 9.37 27.8716 6.54 30.0116 4.46C32.1516 2.38 35.4816 1.34 40.0016 1.34C42.5816 1.34 44.8516 1.76 46.8116 2.6C48.7916 3.44 50.4716 4.74 51.8516 6.5C50.9516 6.96 49.1916 7.88 46.5716 9.26L45.8216 9.68C45.0416 8.9 44.1316 8.32 43.0916 7.94C42.0516 7.54 40.9516 7.34 39.7916 7.34C37.8716 7.34 36.4416 7.85 35.5016 8.87C34.5616 9.87 34.0916 11.11 34.0916 12.59C34.0916 14.19 34.5916 15.48 35.5916 16.46C36.6116 17.44 38.1616 17.93 40.2416 17.93C41.1416 17.93 42.0116 17.8 42.8516 17.54C43.7116 17.28 44.4316 16.83 45.0116 16.19H39.1616V11.33ZM75.9699 15.56L77.5299 1.97H84.8499L80.8299 23.75H71.6199L69.5799 11.6L67.2099 23.75H58.3899L54.3699 1.97H61.6899L63.2199 15.38L65.6199 1.97H73.6299L75.9699 15.56ZM104.671 7.94C102.291 7.82 100.531 7.75 99.391 7.73V17.99C100.551 17.97 102.311 17.9 104.671 17.78V23.75H87.241V17.78C89.541 17.9 91.291 17.97 92.491 17.99V7.73C91.291 7.75 89.541 7.82 87.241 7.94V1.97H104.671V7.94ZM117.035 17.84C118.175 17.82 121.115 17.74 125.855 17.6C126.455 17.58 127.155 17.55 127.955 17.51C128.755 17.47 129.645 17.44 130.625 17.42C130.485 18.36 130.395 19.3 130.355 20.24C130.335 21.18 130.325 22.35 130.325 23.75H107.315V17.06C108.415 16.44 109.615 15.68 110.915 14.78C112.215 13.86 113.895 12.66 115.955 11.18C117.875 9.78 119.265 8.78 120.125 8.18C118.545 8.2 115.375 8.31 110.615 8.51C108.975 8.59 107.875 8.64 107.315 8.66C107.315 7.18 107.295 5.94 107.255 4.94C107.235 3.94 107.175 2.95 107.075 1.97H130.325V8.69C129.265 9.39 127.305 10.75 124.445 12.77C121.245 15.05 118.775 16.74 117.035 17.84Z" fill="black"/>
</svg>
